<svg width="120" height="120" viewBox="0 0 120 120" fill="none" xmlns="http://www.w3.org/2000/svg">
  <rect width="120" height="120" rx="28" fill="#052E16"/>
  <circle cx="60" cy="58" r="34" fill="#10B981"/>
  <path d="M29 55C36 50 42 50 47 55C53 61 59 61 65 55C72 49 79 49 91 57C90 76 76 92 58 92C41 92 28 77 29 55Z" fill="#ECFDF5"/>
  <path d="M43 32C52 25 66 25 76 33C67 33 61 38 58 46C55 39 50 34 43 32Z" fill="#A7F3D0"/>
  <path d="M60 30C68 40 68 52 60 63C52 52 52 40 60 30Z" fill="#047857"/>
  <path d="M38 83C49 94 70 97 84 83" stroke="#A7F3D0" stroke-width="5" stroke-linecap="round"/>
  <text x="60" y="109" fill="#D1FAE5" font-family="Arial, sans-serif" font-size="13" font-weight="700" text-anchor="middle">SOS</text>
</svg>
